<?xml version="1.0" encoding="UTF-8" standalone="no"?>
<!-- Created with Inkscape (http://www.inkscape.org/) -->

<svg
   xmlns:dc="http://purl.org/dc/elements/1.1/"
   xmlns:cc="http://creativecommons.org/ns#"
   xmlns:rdf="http://www.w3.org/1999/02/22-rdf-syntax-ns#"
   xmlns:svg="http://www.w3.org/2000/svg"
   xmlns="http://www.w3.org/2000/svg"
   xmlns:sodipodi="http://sodipodi.sourceforge.net/DTD/sodipodi-0.dtd"
   xmlns:inkscape="http://www.inkscape.org/namespaces/inkscape"
   width="20.037575mm"
   height="11.540436mm"
   viewBox="0 0 70.999281 40.891308"
   id="svg8848"
   version="1.1"
   inkscape:version="0.91 r13725"
   sodipodi:docname="ifis_white.svg">
  <defs
     id="defs8850" />
  <sodipodi:namedview
     id="base"
     pagecolor="#ffffff"
     bordercolor="#666666"
     borderopacity="1.0"
     inkscape:pageopacity="0.0"
     inkscape:pageshadow="2"
     inkscape:zoom="0.35"
     inkscape:cx="-682.35751"
     inkscape:cy="-130.9829"
     inkscape:document-units="px"
     inkscape:current-layer="layer1"
     showgrid="false"
     fit-margin-top="0"
     fit-margin-left="0"
     fit-margin-right="0"
     fit-margin-bottom="0"
     inkscape:window-width="1920"
     inkscape:window-height="1017"
     inkscape:window-x="-8"
     inkscape:window-y="-8"
     inkscape:window-maximized="1" />
  <metadata
     id="metadata8853">
    <rdf:RDF>
      <cc:Work
         rdf:about="">
        <dc:format>image/svg+xml</dc:format>
        <dc:type
           rdf:resource="http://purl.org/dc/dcmitype/StillImage" />
        <dc:title></dc:title>
      </cc:Work>
    </rdf:RDF>
  </metadata>
  <g
     inkscape:label="Ebene 1"
     inkscape:groupmode="layer"
     id="layer1"
     transform="translate(-433.07179,-360.48799)">
    <g
       id="g8775"
       transform="translate(-1801.3559,-3926.0757)">
      <path
         inkscape:export-ydpi="19.02"
         inkscape:export-xdpi="19.02"
         inkscape:export-filename="/home/marian/tNAC/tNAC-Webseite/ifis.png"
         style="clip-rule:evenodd;fill:#ffffff;fill-opacity:1;fill-rule:evenodd;stroke:none;stroke-width:0.05307736"
         id="path9036"
         d="m 2234.7922,4321.9738 0,-0.8741 0.7692,0 0,0.8741 z m 0,5.3843 0,-4.5365 0.7692,0 0,4.5365 z"
         inkscape:connector-curvature="0" />
      <path
         inkscape:export-ydpi="19.02"
         inkscape:export-xdpi="19.02"
         inkscape:export-filename="/home/marian/tNAC/tNAC-Webseite/ifis.png"
         style="fill:#ffffff;fill-opacity:1;stroke:none;stroke-width:0.05307736"
         id="path9038"
         d="m 2236.7387,4327.3581 0,-4.5365 0.6905,0 0,0.6447 c 0.3325,-0.4939 0.8131,-0.7407 1.4413,-0.7407 0.2729,0 0.5237,0.049 0.7526,0.1472 0.2289,0.098 0.4002,0.2269 0.5137,0.3859 0.1137,0.1593 0.1935,0.3484 0.239,0.5676 0.028,0.142 0.043,0.391 0.043,0.7462 l 0,2.7857 -0.7692,0 0,-2.7564 c 0,-0.313 -0.03,-0.5471 -0.089,-0.7019 -0.06,-0.1551 -0.1654,-0.279 -0.3172,-0.3714 -0.152,-0.092 -0.33,-0.1387 -0.5344,-0.1387 -0.3263,0 -0.6081,0.1039 -0.8451,0.3115 -0.237,0.2077 -0.3554,0.6016 -0.3554,1.1821 l 0,2.4748 -0.7691,0 z"
         inkscape:connector-curvature="0" />
      <path
         inkscape:export-ydpi="19.02"
         inkscape:export-xdpi="19.02"
         inkscape:export-filename="/home/marian/tNAC/tNAC-Webseite/ifis.png"
         style="fill:#ffffff;fill-opacity:1;stroke:none;stroke-width:0.05307736"
         id="path9040"
         d="m 2243.2746,4326.6723 0.1048,0.6788 c -0.2156,0.046 -0.4086,0.068 -0.5789,0.068 -0.2781,0 -0.4938,-0.044 -0.6471,-0.1327 -0.1532,-0.088 -0.2611,-0.2043 -0.3235,-0.3484 -0.062,-0.144 -0.094,-0.4471 -0.094,-0.9088 l 0,-2.6131 -0.5681,0 0,-0.5946 0.5681,0 0,-1.1223 0.7693,-0.4608 0,1.5831 0.7692,0 0,0.5946 -0.7692,0 0,2.6571 c 0,0.2199 0.013,0.3611 0.04,0.4238 0.027,0.063 0.071,0.1127 0.1317,0.1497 0.061,0.037 0.1481,0.056 0.2615,0.056 0.085,1e-4 0.1967,-0.011 0.3356,-0.03 z"
         inkscape:connector-curvature="0" />
      <path
         inkscape:export-ydpi="19.02"
         inkscape:export-xdpi="19.02"
         inkscape:export-filename="/home/marian/tNAC/tNAC-Webseite/ifis.png"
         style="clip-rule:evenodd;fill:#ffffff;fill-opacity:1;fill-rule:evenodd;stroke:none;stroke-width:0.05307736"
         id="path9042"
         d="m 2247.1232,4325.8897 0.7956,0.1047 c -0.1249,0.4625 -0.3563,0.8213 -0.6941,1.0767 -0.3379,0.2553 -0.7694,0.3832 -1.2946,0.3832 -0.6615,0 -1.186,-0.2038 -1.5736,-0.6113 -0.3876,-0.4077 -0.5813,-0.9792 -0.5813,-1.7148 0,-0.7611 0.1958,-1.3519 0.5876,-1.7723 0.3919,-0.4203 0.9001,-0.6303 1.5247,-0.6303 0.6048,0 1.0987,0.206 1.482,0.6177 0.3832,0.4118 0.5749,0.9915 0.5749,1.7385 0,0.046 0,0.1138 0,0.2046 l -3.3784,0 c 0.028,0.497 0.169,0.8777 0.4219,1.142 0.2529,0.2643 0.5683,0.3963 0.9461,0.3963 0.2813,0 0.5213,-0.074 0.7202,-0.2229 0.199,-0.1492 0.3567,-0.3865 0.4732,-0.7124 z m -2.5175,-1.2326 2.526,0 c -0.034,-0.3813 -0.1306,-0.6675 -0.2897,-0.8583 -0.2442,-0.296 -0.5607,-0.4441 -0.9499,-0.4441 -0.3521,0 -0.6482,0.1183 -0.8881,0.3543 -0.24,0.2366 -0.3728,0.5525 -0.3983,0.9481 z"
         inkscape:connector-curvature="0" />
      <path
         inkscape:export-ydpi="19.02"
         inkscape:export-xdpi="19.02"
         inkscape:export-filename="/home/marian/tNAC/tNAC-Webseite/ifis.png"
         style="fill:#ffffff;fill-opacity:1;stroke:none;stroke-width:0.05307736"
         id="path9044"
         d="m 2248.8865,4327.3581 0,-4.5365 0.6905,0 0,0.6949 c 0.1768,-0.3222 0.3399,-0.5345 0.4896,-0.6371 0.1496,-0.1024 0.3142,-0.1536 0.4938,-0.1536 0.2594,0 0.5231,0.081 0.791,0.2427 l -0.2744,0.7102 c -0.1865,-0.1052 -0.373,-0.1578 -0.5595,-0.1578 -0.1668,0 -0.3165,0.05 -0.4494,0.1513 -0.1328,0.1011 -0.2277,0.2408 -0.2844,0.4201 -0.085,0.2727 -0.128,0.5714 -0.128,0.8952 l 0,2.3706 -0.7692,0 z"
         inkscape:connector-curvature="0" />
      <path
         inkscape:export-ydpi="19.02"
         inkscape:export-xdpi="19.02"
         inkscape:export-filename="/home/marian/tNAC/tNAC-Webseite/ifis.png"
         style="fill:#ffffff;fill-opacity:1;stroke:none;stroke-width:0.05307736"
         id="path9046"
         d="m 2251.815,4327.3581 0,-4.5365 0.6906,0 0,0.6447 c 0.3325,-0.4939 0.813,-0.7407 1.4414,-0.7407 0.2729,0 0.5237,0.049 0.7526,0.1472 0.2287,0.098 0.4001,0.2269 0.5137,0.3859 0.1137,0.1593 0.1933,0.3484 0.2388,0.5676 0.028,0.142 0.043,0.391 0.043,0.7462 l 0,2.7857 -0.7693,0 0,-2.7564 c 0,-0.313 -0.03,-0.5471 -0.089,-0.7019 -0.06,-0.1551 -0.1654,-0.279 -0.3172,-0.3714 -0.1518,-0.093 -0.33,-0.1387 -0.5343,-0.1387 -0.3264,0 -0.6082,0.1039 -0.8451,0.3115 -0.237,0.2077 -0.3555,0.6016 -0.3555,1.1821 l 0,2.4748 -0.7691,0 z"
         inkscape:connector-curvature="0" />
      <path
         inkscape:export-ydpi="19.02"
         inkscape:export-xdpi="19.02"
         inkscape:export-filename="/home/marian/tNAC/tNAC-Webseite/ifis.png"
         style="clip-rule:evenodd;fill:#ffffff;fill-opacity:1;fill-rule:evenodd;stroke:none;stroke-width:0.05307736"
         id="path9048"
         d="m 2259.7759,4325.8897 0.7957,0.1047 c -0.125,0.4625 -0.3564,0.8213 -0.6942,1.0767 -0.3379,0.2553 -0.7694,0.3832 -1.2947,0.3832 -0.6614,0 -1.1859,-0.2038 -1.5735,-0.6113 -0.3876,-0.4077 -0.5813,-0.9792 -0.5813,-1.7148 0,-0.7611 0.1958,-1.3519 0.5876,-1.7723 0.3919,-0.4203 0.9001,-0.6303 1.5247,-0.6303 0.6048,0 1.0987,0.206 1.482,0.6177 0.3833,0.4118 0.5749,0.9915 0.5749,1.7385 0,0.046 0,0.1138 0,0.2046 l -3.3783,0 c 0.028,0.497 0.1689,0.8777 0.4218,1.142 0.2529,0.2643 0.5683,0.3963 0.9462,0.3963 0.2813,0 0.5213,-0.074 0.7201,-0.2229 0.1991,-0.1492 0.3568,-0.3865 0.4732,-0.7124 z m -2.5175,-1.2326 2.5261,0 c -0.034,-0.3813 -0.1307,-0.6675 -0.2897,-0.8583 -0.2442,-0.296 -0.5608,-0.4441 -0.95,-0.4441 -0.3521,0 -0.6481,0.1183 -0.8881,0.3543 -0.24,0.2366 -0.3728,0.5525 -0.3983,0.9481 z"
         inkscape:connector-curvature="0" />
      <path
         inkscape:export-ydpi="19.02"
         inkscape:export-xdpi="19.02"
         inkscape:export-filename="/home/marian/tNAC/tNAC-Webseite/ifis.png"
         style="fill:#ffffff;fill-opacity:1;stroke:none;stroke-width:0.05307736"
         id="path9050"
         d="m 2263.2175,4326.6723 0.1048,0.6788 c -0.2157,0.046 -0.4087,0.068 -0.579,0.068 -0.2781,0 -0.4938,-0.044 -0.6471,-0.1327 -0.1532,-0.088 -0.261,-0.2043 -0.3235,-0.3484 -0.062,-0.144 -0.094,-0.4471 -0.094,-0.9088 l 0,-2.6131 -0.5681,0 0,-0.5946 0.5681,0 0,-1.1223 0.7692,-0.4608 0,1.5831 0.7693,0 0,0.5946 -0.7693,0 0,2.6571 c 0,0.2199 0.013,0.3611 0.04,0.4238 0.027,0.063 0.071,0.1127 0.1317,0.1497 0.061,0.037 0.1481,0.056 0.2615,0.056 0.085,1e-4 0.1968,-0.011 0.3357,-0.03 z"
         inkscape:connector-curvature="0" />
      <polygon
         inkscape:export-ydpi="19.02"
         inkscape:export-xdpi="19.02"
         inkscape:export-filename="/home/marian/tNAC/tNAC-Webseite/ifis.png"
         style="fill:#ffffff;fill-opacity:1;stroke:none"
         id="polygon9052"
         points="195.183,259.619 195.183,254.498 211.014,254.498 211.014,259.619 "
         transform="matrix(0.15018229,0,0,0.15018229,2234.3526,4286.4886)" />
      <path
         inkscape:export-ydpi="19.02"
         inkscape:export-xdpi="19.02"
         inkscape:export-filename="/home/marian/tNAC/tNAC-Webseite/ifis.png"
         style="fill:#ffffff;fill-opacity:1;stroke:none;stroke-width:0.05307736"
         id="path9054"
         d="m 2266.5854,4326.0032 0.7604,-0.1222 c 0.043,0.3047 0.1619,0.5382 0.3572,0.7004 0.1952,0.1622 0.4684,0.2434 0.8191,0.2434 0.3535,0 0.616,-0.072 0.787,-0.2154 0.1711,-0.1437 0.2567,-0.312 0.2567,-0.5053 0,-0.1737 -0.077,-0.31 -0.2302,-0.4099 -0.1071,-0.068 -0.3693,-0.1547 -0.7865,-0.26 -0.5619,-0.142 -0.9516,-0.2645 -1.1692,-0.3684 -0.2176,-0.1035 -0.3827,-0.247 -0.495,-0.4299 -0.1123,-0.1834 -0.1685,-0.3854 -0.1685,-0.6069 0,-0.2015 0.046,-0.3884 0.1385,-0.5602 0.092,-0.1718 0.2182,-0.3145 0.3773,-0.428 0.1194,-0.088 0.282,-0.1625 0.488,-0.2236 0.2061,-0.061 0.427,-0.091 0.6629,-0.091 0.3552,0 0.667,0.051 0.9355,0.1539 0.2685,0.103 0.4668,0.242 0.5946,0.4177 0.1279,0.1754 0.2161,0.4103 0.2642,0.7042 l -0.7516,0.105 c -0.034,-0.236 -0.1326,-0.4207 -0.2958,-0.553 -0.1631,-0.1327 -0.3938,-0.1989 -0.6918,-0.1989 -0.3518,0 -0.6031,0.058 -0.7534,0.1749 -0.1503,0.1165 -0.2256,0.2532 -0.2256,0.4095 0,0.1 0.031,0.1893 0.094,0.2691 0.062,0.082 0.1603,0.1508 0.2936,0.2049 0.077,0.028 0.3024,0.094 0.6769,0.1963 0.542,0.1449 0.9209,0.2634 1.1367,0.3555 0.2158,0.092 0.3851,0.2263 0.508,0.4028 0.1228,0.176 0.1842,0.3945 0.1842,0.6558 0,0.2556 -0.075,0.4961 -0.224,0.722 -0.1496,0.2258 -0.3653,0.4003 -0.6472,0.5238 -0.2817,0.1233 -0.6007,0.1853 -0.9566,0.1853 -0.5895,0 -1.0387,-0.1219 -1.3476,-0.3661 -0.3089,-0.2442 -0.506,-0.6055 -0.5914,-1.0849 z"
         inkscape:connector-curvature="0" />
      <path
         inkscape:export-ydpi="19.02"
         inkscape:export-xdpi="19.02"
         inkscape:export-filename="/home/marian/tNAC/tNAC-Webseite/ifis.png"
         style="clip-rule:evenodd;fill:#ffffff;fill-opacity:1;fill-rule:evenodd;stroke:none;stroke-width:0.05307736"
         id="path9056"
         d="m 2271.2617,4321.9738 0,-0.8741 0.7693,0 0,0.8741 z m 0,5.3843 0,-4.5365 0.7693,0 0,4.5365 z"
         inkscape:connector-curvature="0" />
      <path
         inkscape:export-ydpi="19.02"
         inkscape:export-xdpi="19.02"
         inkscape:export-filename="/home/marian/tNAC/tNAC-Webseite/ifis.png"
         style="fill:#ffffff;fill-opacity:1;stroke:none;stroke-width:0.05307736"
         id="path9058"
         d="m 2276.1713,4325.6973 0.7518,0.105 c -0.082,0.5167 -0.2933,0.9213 -0.633,1.2134 -0.3394,0.2921 -0.7565,0.4386 -1.2507,0.4386 -0.6192,0 -1.1173,-0.2026 -1.4936,-0.6072 -0.3767,-0.4048 -0.5647,-0.9848 -0.5647,-1.7403 0,-0.4884 0.081,-0.9159 0.2431,-1.2821 0.1619,-0.3663 0.4087,-0.6413 0.7398,-0.8246 0.3312,-0.183 0.6916,-0.2744 1.0809,-0.2744 0.4919,0 0.8944,0.1242 1.207,0.373 0.3127,0.249 0.5131,0.6026 0.6014,1.0605 l -0.743,0.1134 c -0.071,-0.3044 -0.1973,-0.5336 -0.3785,-0.6872 -0.1811,-0.1537 -0.3994,-0.2306 -0.6561,-0.2306 -0.3875,0 -0.7026,0.1386 -0.9448,0.4157 -0.242,0.2773 -0.3631,0.7154 -0.3631,1.3153 0,0.6081 0.1163,1.0501 0.3499,1.3258 0.2335,0.2753 0.5379,0.4133 0.9137,0.4133 0.3019,0 0.5536,-0.092 0.7556,-0.2767 0.2021,-0.1842 0.3304,-0.468 0.3843,-0.8511 z"
         inkscape:connector-curvature="0" />
      <path
         inkscape:export-ydpi="19.02"
         inkscape:export-xdpi="19.02"
         inkscape:export-filename="/home/marian/tNAC/tNAC-Webseite/ifis.png"
         style="fill:#ffffff;fill-opacity:1;stroke:none;stroke-width:0.05307736"
         id="path9060"
         d="m 2277.5786,4327.3581 0,-6.2584 0.7691,0 0,2.2516 c 0.357,-0.4171 0.8073,-0.6257 1.3514,-0.6257 0.3341,0 0.6244,0.066 0.8709,0.1984 0.2467,0.1324 0.4229,0.3151 0.5291,0.5481 0.1061,0.2332 0.1593,0.5715 0.1593,1.0153 l 0,2.8707 -0.7691,0 0,-2.8688 c 0,-0.3834 -0.083,-0.6626 -0.2481,-0.8374 -0.1653,-0.1748 -0.3994,-0.2623 -0.7019,-0.2623 -0.2262,0 -0.4388,0.059 -0.638,0.1769 -0.1994,0.118 -0.3413,0.2778 -0.4262,0.4795 -0.085,0.2017 -0.1274,0.4801 -0.1274,0.8354 l 0,2.4766 -0.769,0 z"
         inkscape:connector-curvature="0" />
      <path
         inkscape:export-ydpi="19.02"
         inkscape:export-xdpi="19.02"
         inkscape:export-filename="/home/marian/tNAC/tNAC-Webseite/ifis.png"
         style="clip-rule:evenodd;fill:#ffffff;fill-opacity:1;fill-rule:evenodd;stroke:none;stroke-width:0.05307736"
         id="path9062"
         d="m 2285.5395,4325.8897 0.7958,0.1047 c -0.1249,0.4625 -0.3564,0.8213 -0.6943,1.0767 -0.3379,0.2553 -0.7693,0.3832 -1.2947,0.3832 -0.6614,0 -1.1858,-0.2038 -1.5735,-0.6113 -0.3874,-0.4077 -0.5813,-0.9792 -0.5813,-1.7148 0,-0.7611 0.196,-1.3519 0.5878,-1.7723 0.3915,-0.4203 0.8999,-0.6303 1.5247,-0.6303 0.6044,0 1.0984,0.206 1.4818,0.6177 0.3834,0.4118 0.5749,0.9915 0.5749,1.7385 0,0.046 0,0.1138 0,0.2046 l -3.3785,0 c 0.028,0.497 0.1689,0.8777 0.4219,1.142 0.2529,0.2643 0.5684,0.3963 0.9462,0.3963 0.2813,0 0.5214,-0.074 0.7202,-0.2229 0.1988,-0.1492 0.3567,-0.3865 0.4731,-0.7124 z m -2.5177,-1.2326 2.5261,0 c -0.034,-0.3813 -0.1305,-0.6675 -0.2898,-0.8583 -0.2441,-0.296 -0.5608,-0.4441 -0.9498,-0.4441 -0.352,0 -0.6482,0.1183 -0.8882,0.3543 -0.2398,0.2366 -0.3727,0.5525 -0.3983,0.9481 z"
         inkscape:connector-curvature="0" />
      <path
         inkscape:export-ydpi="19.02"
         inkscape:export-xdpi="19.02"
         inkscape:export-filename="/home/marian/tNAC/tNAC-Webseite/ifis.png"
         style="fill:#ffffff;fill-opacity:1;stroke:none;stroke-width:0.05307736"
         id="path9064"
         d="m 2287.3026,4327.3581 0,-4.5365 0.6906,0 0,0.6949 c 0.1769,-0.3222 0.34,-0.5345 0.4896,-0.6371 0.1496,-0.1024 0.3145,-0.1536 0.4939,-0.1536 0.2594,0 0.523,0.081 0.7909,0.2427 l -0.2743,0.7102 c -0.1865,-0.1052 -0.373,-0.1578 -0.5597,-0.1578 -0.1665,0 -0.3164,0.05 -0.449,0.1513 -0.1329,0.1011 -0.2277,0.2408 -0.2846,0.4201 -0.085,0.2727 -0.128,0.5714 -0.128,0.8952 l 0,2.3706 -0.7694,0 z"
         inkscape:connector-curvature="0" />
      <path
         inkscape:export-ydpi="19.02"
         inkscape:export-xdpi="19.02"
         inkscape:export-filename="/home/marian/tNAC/tNAC-Webseite/ifis.png"
         style="fill:#ffffff;fill-opacity:1;stroke:none;stroke-width:0.05307736"
         id="path9066"
         d="m 2290.2315,4327.3581 0,-6.2584 0.7691,0 0,2.2516 c 0.3567,-0.4171 0.8072,-0.6257 1.351,-0.6257 0.3345,0 0.6248,0.066 0.8712,0.1984 0.2465,0.1324 0.4227,0.3151 0.5288,0.5481 0.1065,0.2332 0.1597,0.5715 0.1597,1.0153 l 0,2.8707 -0.7694,0 0,-2.8688 c 0,-0.3834 -0.083,-0.6626 -0.2478,-0.8374 -0.1655,-0.1748 -0.3995,-0.2623 -0.702,-0.2623 -0.2261,0 -0.4388,0.059 -0.6383,0.1769 -0.1991,0.118 -0.341,0.2778 -0.4262,0.4795 -0.085,0.2017 -0.127,0.4801 -0.127,0.8354 l 0,2.4766 -0.7691,0 z"
         inkscape:connector-curvature="0" />
      <path
         inkscape:export-ydpi="19.02"
         inkscape:export-xdpi="19.02"
         inkscape:export-filename="/home/marian/tNAC/tNAC-Webseite/ifis.png"
         style="clip-rule:evenodd;fill:#ffffff;fill-opacity:1;fill-rule:evenodd;stroke:none;stroke-width:0.05307736"
         id="path9068"
         d="m 2298.1924,4325.8897 0.7955,0.1047 c -0.1247,0.4625 -0.3561,0.8213 -0.694,1.0767 -0.3379,0.2553 -0.7694,0.3832 -1.2947,0.3832 -0.6614,0 -1.1859,-0.2038 -1.5735,-0.6113 -0.3875,-0.4077 -0.5814,-0.9792 -0.5814,-1.7148 0,-0.7611 0.196,-1.3519 0.5879,-1.7723 0.3915,-0.4203 0.8999,-0.6303 1.5243,-0.6303 0.6048,0 1.0987,0.206 1.4822,0.6177 0.3831,0.4118 0.5749,0.9915 0.5749,1.7385 0,0.046 0,0.1138 0,0.2046 l -3.3782,0 c 0.028,0.497 0.1689,0.8777 0.4218,1.142 0.253,0.2643 0.5682,0.3963 0.9463,0.3963 0.2813,0 0.5213,-0.074 0.7202,-0.2229 0.1988,-0.1492 0.3567,-0.3865 0.473,-0.7124 z m -2.5177,-1.2326 2.5261,0 c -0.034,-0.3813 -0.1308,-0.6675 -0.2899,-0.8583 -0.244,-0.296 -0.5608,-0.4441 -0.9497,-0.4441 -0.3524,0 -0.6482,0.1183 -0.8882,0.3543 -0.2398,0.2366 -0.3728,0.5525 -0.3983,0.9481 z"
         inkscape:connector-curvature="0" />
      <path
         inkscape:export-ydpi="19.02"
         inkscape:export-xdpi="19.02"
         inkscape:export-filename="/home/marian/tNAC/tNAC-Webseite/ifis.png"
         style="clip-rule:evenodd;fill:#ffffff;fill-opacity:1;fill-rule:evenodd;stroke:none;stroke-width:0.05307736"
         id="path9070"
         d="m 2299.9644,4321.9738 0,-0.8741 0.769,0 0,0.8741 z m 0,5.3843 0,-4.5365 0.769,0 0,4.5365 z"
         inkscape:connector-curvature="0" />
      <path
         inkscape:export-ydpi="19.02"
         inkscape:export-xdpi="19.02"
         inkscape:export-filename="/home/marian/tNAC/tNAC-Webseite/ifis.png"
         style="fill:#ffffff;fill-opacity:1;stroke:none;stroke-width:0.05307736"
         id="path9072"
         d="m 2303.5802,4326.6723 0.1049,0.6788 c -0.2156,0.046 -0.4086,0.068 -0.5789,0.068 -0.2782,0 -0.4937,-0.044 -0.6472,-0.1327 -0.1531,-0.088 -0.261,-0.2043 -0.3234,-0.3484 -0.062,-0.144 -0.094,-0.4471 -0.094,-0.9088 l 0,-2.6131 -0.5682,0 0,-0.5946 0.5682,0 0,-1.1223 0.7691,-0.4608 0,1.5831 0.7691,0 0,0.5946 -0.7691,0 0,2.6571 c 0,0.2199 0.014,0.3611 0.041,0.4238 0.027,0.063 0.071,0.1127 0.1317,0.1497 0.061,0.037 0.1478,0.056 0.2614,0.056 0.085,1e-4 0.1967,-0.011 0.3355,-0.03 z"
         inkscape:connector-curvature="0" />
      <polygon
         inkscape:export-ydpi="19.02"
         inkscape:export-xdpi="19.02"
         inkscape:export-filename="/home/marian/tNAC/tNAC-Webseite/ifis.png"
         style="fill:#ffffff;fill-opacity:1;stroke:none"
         id="polygon9074"
         points="467.436,272.133 467.436,266.313 473.254,266.313 473.254,272.133 "
         transform="matrix(0.15018229,0,0,0.15018229,2234.3526,4286.4886)" />
      <path
         inkscape:export-ydpi="19.02"
         inkscape:export-xdpi="19.02"
         inkscape:export-filename="/home/marian/tNAC/tNAC-Webseite/ifis.png"
         style="fill:#ffffff;fill-opacity:1;stroke:none;stroke-width:0.80829829;stroke-miterlimit:3.86369991;stroke-opacity:1"
         id="path9076"
         d="m 2244.5126,4318.3774 5.428,0 0.012,-14.159 2.2527,0 0,-4.0625 -2.2827,0 c 0,-0.9987 0.087,-1.6283 0.3679,-1.9824 0.2027,-0.2552 0.5932,-0.5857 1.9148,-0.5632 0,0 0,-3.8981 0,-3.9648 -0.2649,0 -0.3678,-0.01 -0.5881,-0.01 -0.2194,0 -0.431,-0.01 -0.635,-0.01 -0.9446,0.01 -2.1411,0.071 -3.0249,0.4061 -0.9559,0.3628 -1.6145,0.7296 -2.2281,1.3923 -0.5303,0.5841 -0.8417,1.0687 -1.0618,1.8131 -0.2342,0.7917 -0.2511,1.7776 -0.2618,2.8463 l -1.9261,0 0.01,4.1267 2.0134,0 z"
         stroke-miterlimit="3.8637"
         inkscape:connector-curvature="0" />
      <polygon
         inkscape:export-ydpi="19.02"
         inkscape:export-xdpi="19.02"
         inkscape:export-filename="/home/marian/tNAC/tNAC-Webseite/ifis.png"
         style="fill:#ffffff;fill-opacity:1;stroke:none;stroke-width:1.00010002;stroke-miterlimit:3.86369991;stroke-opacity:1"
         id="polygon9078"
         points="0.5,46.318 37.722,46.318 37.722,74.08 0.5,74.08 "
         stroke-miterlimit="3.8637"
         transform="matrix(0.15018229,0,0,0.15018229,2234.3526,4286.4886)" />
      <path
         inkscape:export-ydpi="19.02"
         inkscape:export-xdpi="19.02"
         inkscape:export-filename="/home/marian/tNAC/tNAC-Webseite/ifis.png"
         style="fill:#ffffff;fill-opacity:1;stroke:none;stroke-width:0.05307736"
         id="path9080"
         d="m 2262.727,4293.6012 c -1.1438,0 -2.2315,0.2742 -2.8862,0.5497 -0.6548,0.2756 -1.3445,0.6503 -1.888,1.1035 -0.8859,0.7056 -1.5056,1.5427 -1.9597,2.6138 -0.3996,0.9425 -0.5079,2.2802 -0.5064,3.4914 l 0,8.8187 c 0,1.1052 -0.046,2.2457 0.2023,3.1154 0.2484,0.8694 0.6175,1.792 1.1145,2.4464 0.6285,0.8398 1.5167,1.4716 2.4029,1.9596 0.8862,0.4881 2.2379,0.7676 3.5365,0.7676 l -0.016,-4.2201 c -0.5615,0 -0.9005,-0.056 -1.274,-0.2303 -0.3562,-0.1737 -0.8009,-0.4878 -1.0016,-0.8623 -0.4263,-0.77 -0.3655,-1.2689 -0.3655,-2.3941 l 0,-8.6572 c 0,-1.0479 -0.1373,-2.1637 0.5252,-3.3431 0.07,-0.1254 0.3784,-0.398 0.492,-0.469 0.1568,-0.098 0.6279,-0.3611 1.6239,-0.3961 z"
         inkscape:connector-curvature="0" />
      <path
         inkscape:export-ydpi="19.02"
         inkscape:export-xdpi="19.02"
         inkscape:export-filename="/home/marian/tNAC/tNAC-Webseite/ifis.png"
         style="fill:#ffffff;fill-opacity:1;stroke:none;stroke-width:0.80829829;stroke-miterlimit:3.86369991;stroke-opacity:1"
         id="path9082"
         d="m 2262.727,4293.6012 c -1.1438,0 -2.2315,0.2742 -2.8862,0.5497 -0.6548,0.2756 -1.3445,0.6503 -1.888,1.1035 -0.8859,0.7056 -1.5056,1.5427 -1.9597,2.6138 -0.3996,0.9425 -0.5079,2.2802 -0.5064,3.4914 l 0,8.8187 c 0,1.1052 -0.046,2.2457 0.2023,3.1154 0.2484,0.8694 0.6175,1.792 1.1145,2.4464 0.6285,0.8398 1.5167,1.4716 2.4029,1.9596 0.8862,0.4881 2.2379,0.7676 3.5365,0.7676 l -0.016,-4.2201 c -0.5615,0 -0.9005,-0.056 -1.274,-0.2303 -0.3562,-0.1737 -0.8009,-0.4878 -1.0016,-0.8623 -0.4263,-0.77 -0.3655,-1.2689 -0.3655,-2.3941 l 0,-8.6572 c 0,-1.0479 -0.1373,-2.1637 0.5252,-3.3431 0.07,-0.1254 0.3784,-0.398 0.492,-0.469 0.1568,-0.098 0.6279,-0.3611 1.6239,-0.3961 z"
         stroke-miterlimit="3.8637"
         inkscape:connector-curvature="0" />
      <polygon
         inkscape:export-ydpi="19.02"
         inkscape:export-xdpi="19.02"
         inkscape:export-filename="/home/marian/tNAC/tNAC-Webseite/ifis.png"
         style="fill:#ffffff;fill-opacity:1;stroke:none;stroke-width:1.00010002;stroke-miterlimit:3.86369991;stroke-opacity:1"
         id="polygon9084"
         points="213.722,0.5 259.813,0.5 259.813,34.773 213.722,34.773 "
         stroke-miterlimit="3.8637"
         transform="matrix(0.15018229,0,0,0.15018229,2234.3526,4286.4886)" />
      <polygon
         inkscape:export-ydpi="19.02"
         inkscape:export-xdpi="19.02"
         inkscape:export-filename="/home/marian/tNAC/tNAC-Webseite/ifis.png"
         style="fill:#ffffff;fill-opacity:1;stroke:none;stroke-width:1.00010002;stroke-miterlimit:3.86369991;stroke-opacity:1"
         id="polygon9086"
         points="213.722,46.591 259.176,46.591 259.176,212.334 213.722,212.334 "
         stroke-miterlimit="3.8637"
         transform="matrix(0.15018229,0,0,0.15018229,2234.3526,4286.4886)" />
      <path
         inkscape:export-ydpi="19.02"
         inkscape:export-xdpi="19.02"
         inkscape:export-filename="/home/marian/tNAC/tNAC-Webseite/ifis.png"
         style="fill:#ffffff;fill-opacity:1;stroke:none;stroke-width:0.80829829;stroke-opacity:1"
         id="path9088"
         d="m 2276.8126,4310.7529 c 0,1.1049 0.3532,1.9302 0.6309,2.6276 0.2669,0.6712 0.7177,1.3689 1.2085,1.9521 0.8841,1.0498 1.8635,1.6412 3.2219,2.2583 1.3587,0.6174 2.7361,0.7919 4.2901,0.8045 2.6798,-0.057 4.6467,-0.5373 6.552,-2.0204 2.1826,-1.699 2.7986,-3.332 2.8661,-5.6691 0.024,-1.7868 -0.4054,-3.3184 -1.6791,-4.5055 -1.1543,-1.0756 -2.6771,-1.9049 -5.4374,-2.6085 -1.2152,-0.3098 -1.8751,-0.5723 -2.2007,-0.6856 -0.3321,-0.1154 -0.7577,-0.3174 -0.9815,-0.4582 -0.4508,-0.2741 -1.2272,-0.7238 -1.2592,-1.4756 -0.026,-0.6123 0.1883,-1.0258 0.5918,-1.353 0.4004,-0.3247 1.0363,-0.3608 1.7244,-0.3608 0.2986,0 0.8014,0.1361 1.151,0.3824 0.409,0.343 0.5485,0.718 0.5718,1.3773 l 6.8474,0 c -0.1558,-2.088 -1.019,-3.9471 -2.5901,-5.2768 -1.5704,-1.3297 -3.6111,-2.0841 -5.9657,-2.1281 -2.6445,0.014 -4.5963,0.6011 -6.4581,2.0695 -1.8169,1.4332 -2.7928,3.2039 -2.7998,5.441 -0.01,1.7175 0.3898,2.3568 0.8767,3.1426 0.5115,0.826 1.3003,1.4404 2.1613,1.9915 0.7042,0.4509 1.151,0.6134 1.7678,0.8806 0.653,0.2345 1.7244,0.6293 3.0883,1.1146 1.6527,0.5881 2.7385,1.0501 3.2293,1.5227 0.2314,0.223 0.4869,0.5555 0.4869,1.2809 0,0.4834 -0.2459,0.8897 -0.5664,1.158 -0.3103,0.2598 -0.7903,0.5847 -1.3818,0.599 -0.8981,0.023 -1.4323,0.023 -2.006,-0.3321 -0.6157,-0.3795 -0.8146,-0.6662 -1.115,-1.7174 z"
         inkscape:connector-curvature="0" />
      <path
         inkscape:export-ydpi="19.02"
         inkscape:export-xdpi="19.02"
         inkscape:export-filename="/home/marian/tNAC/tNAC-Webseite/ifis.png"
         style="fill:#ffffff;fill-opacity:1;stroke:none;stroke-width:0.80829829;stroke-miterlimit:3.86369991;stroke-opacity:1"
         id="path9090"
         d="m 2276.8126,4310.7529 c 0,1.1049 0.3532,1.9302 0.6309,2.6276 0.2669,0.6712 0.7177,1.3689 1.2085,1.9521 0.8841,1.0498 1.8635,1.6412 3.2219,2.2583 1.3587,0.6174 2.7361,0.7919 4.2901,0.8045 2.6798,-0.057 4.6467,-0.5373 6.552,-2.0204 2.1826,-1.699 2.7986,-3.332 2.8661,-5.6691 0.024,-1.7868 -0.4054,-3.3184 -1.6791,-4.5055 -1.1543,-1.0756 -2.6771,-1.9049 -5.4374,-2.6085 -1.2152,-0.3098 -1.8751,-0.5723 -2.2007,-0.6856 -0.3321,-0.1154 -0.7577,-0.3174 -0.9815,-0.4582 -0.4508,-0.2741 -1.2272,-0.7238 -1.2592,-1.4756 -0.026,-0.6123 0.1883,-1.0258 0.5918,-1.353 0.4004,-0.3247 1.0363,-0.3608 1.7244,-0.3608 0.2986,0 0.8014,0.1361 1.151,0.3824 0.409,0.343 0.5485,0.718 0.5718,1.3773 l 6.8474,0 c -0.1558,-2.088 -1.019,-3.9471 -2.5901,-5.2768 -1.5704,-1.3297 -3.6111,-2.0841 -5.9657,-2.1281 -2.6445,0.014 -4.5963,0.6011 -6.4581,2.0695 -1.8169,1.4332 -2.7928,3.2039 -2.7998,5.441 -0.01,1.7175 0.3898,2.3568 0.8767,3.1426 0.5115,0.826 1.3003,1.4404 2.1613,1.9915 0.7042,0.4509 1.151,0.6134 1.7678,0.8806 0.653,0.2345 1.7244,0.6293 3.0883,1.1146 1.6527,0.5881 2.7385,1.0501 3.2293,1.5227 0.2314,0.223 0.4869,0.5555 0.4869,1.2809 0,0.4834 -0.2459,0.8897 -0.5664,1.158 -0.3103,0.2598 -0.7903,0.5847 -1.3818,0.599 -0.8981,0.023 -1.4323,0.023 -2.006,-0.3321 -0.6157,-0.3795 -0.8146,-0.6662 -1.115,-1.7174 z"
         stroke-miterlimit="3.8637"
         inkscape:connector-curvature="0" />
      <path
         inkscape:export-ydpi="19.02"
         inkscape:export-xdpi="19.02"
         inkscape:export-filename="/home/marian/tNAC/tNAC-Webseite/ifis.png"
         style="fill:#ffffff;fill-opacity:1;stroke:none;stroke-width:0.05307736"
         id="path9092"
         d="m 2297.8609,4318.4801 c 1.1437,0 2.2313,-0.2742 2.8864,-0.5497 0.6546,-0.2758 1.3442,-0.6503 1.8878,-1.1038 0.8857,-0.7054 1.5055,-1.5425 1.9597,-2.6138 0.3998,-0.9424 0.508,-2.28 0.5065,-3.4911 l 0,-8.8187 c 0,-1.1054 0.046,-2.246 -0.2024,-3.1156 -0.2484,-0.8695 -0.6177,-1.7921 -1.1147,-2.4462 -0.6286,-0.84 -1.5165,-1.4718 -2.4029,-1.9598 -0.886,-0.4881 -2.2377,-0.7677 -3.5363,-0.7677 l 0.016,4.2201 c 0.5614,0 0.9005,0.056 1.2738,0.23 0.3564,0.1738 0.8011,0.488 1.0017,0.8627 0.4266,0.7698 0.3656,1.2688 0.3656,2.394 l 0,8.6573 c 0,1.0478 0.1372,2.1635 -0.5251,3.3431 -0.07,0.1253 -0.3784,0.3979 -0.4921,0.469 -0.1566,0.098 -0.6278,0.361 -1.6239,0.396 l 0,4.2942 z"
         inkscape:connector-curvature="0" />
      <path
         style="fill:#ffffff;stroke:none;stroke-width:0.80829829;stroke-miterlimit:3.86369991;stroke-opacity:1"
         inkscape:export-ydpi="19.02"
         inkscape:export-xdpi="19.02"
         inkscape:export-filename="/home/marian/tNAC/tNAC-Webseite/ifis.png"
         id="path9094"
         d="m 2297.8609,4318.4801 c 1.1437,0 2.2313,-0.2742 2.8864,-0.5497 0.6546,-0.2758 1.3442,-0.6503 1.8878,-1.1038 0.8857,-0.7054 1.5055,-1.5425 1.9597,-2.6138 0.3998,-0.9424 0.508,-2.28 0.5065,-3.4911 l 0,-8.8187 c 0,-1.1054 0.046,-2.246 -0.2024,-3.1156 -0.2484,-0.8695 -0.6177,-1.7921 -1.1147,-2.4462 -0.6286,-0.84 -1.5165,-1.4718 -2.4029,-1.9598 -0.886,-0.4881 -2.2377,-0.7677 -3.5363,-0.7677 l 0.016,4.2201 c 0.5614,0 0.9005,0.056 1.2738,0.23 0.3564,0.1738 0.8011,0.488 1.0017,0.8627 0.4266,0.7698 0.3656,1.2688 0.3656,2.394 l 0,8.6573 c 0,1.0478 0.1372,2.1635 -0.5251,3.3431 -0.07,0.1253 -0.3784,0.3979 -0.4921,0.469 -0.1566,0.098 -0.6278,0.361 -1.6239,0.396 l 0,4.2942 z"
         stroke-miterlimit="3.8637"
         inkscape:connector-curvature="0" />
      <polygon
         inkscape:export-ydpi="19.02"
         inkscape:export-xdpi="19.02"
         inkscape:export-filename="/home/marian/tNAC/tNAC-Webseite/ifis.png"
         style="fill:#ffffff;fill-opacity:1;stroke:none;stroke-miterlimit:3.86369991;stroke-opacity:1"
         id="polygon9096"
         points="0.535,88.392 37.722,88.392 37.722,212.334 0.535,212.334 "
         stroke-miterlimit="3.8637"
         transform="matrix(0.15018229,0,0,0.15018229,2234.3526,4286.4886)" />
    </g>
  </g>
</svg>
